<svg width="29" height="13" viewBox="0 0 29 13" fill="none" xmlns="http://www.w3.org/2000/svg">
<path d="M0.098 3.054L0.896 4.37L3.36 2.886V12H5.082V1.038H3.444L0.098 3.054ZM7.2088 6.512C7.2088 8.122 7.6288 9.452 8.4828 10.53C9.3368 11.594 10.4428 12.126 11.8008 12.126C13.1588 12.126 14.2788 11.594 15.1328 10.516C15.9868 9.438 16.4208 8.094 16.4208 6.484C16.4208 4.888 16.0008 3.558 15.1468 2.494C14.2928 1.416 13.1868 0.884 11.8288 0.884C10.4708 0.884 9.3648 1.43 8.4968 2.508C7.6428 3.586 7.2088 4.916 7.2088 6.512ZM14.6428 6.512C14.6428 7.646 14.3908 8.612 13.8728 9.382C13.3548 10.152 12.6828 10.544 11.8288 10.544C10.9748 10.544 10.2888 10.152 9.7708 9.368C9.2528 8.584 9.0008 7.618 9.0008 6.484C9.0008 5.35 9.2528 4.398 9.7568 3.628C10.2748 2.858 10.9468 2.466 11.8008 2.466C12.6548 2.466 13.3408 2.858 13.8588 3.642C14.3768 4.426 14.6428 5.378 14.6428 6.512ZM22.6182 3.404C22.6182 2.718 22.3802 2.13 21.8902 1.654C21.4002 1.164 20.8262 0.926 20.1402 0.926C19.4542 0.926 18.8802 1.164 18.3902 1.654C17.9142 2.144 17.6762 2.718 17.6762 3.404C17.6762 4.09 17.9142 4.664 18.3902 5.154C18.8802 5.644 19.4542 5.882 20.1402 5.882C20.8262 5.882 21.4002 5.644 21.8902 5.154C22.3802 4.664 22.6182 4.09 22.6182 3.404ZM27.6722 1.038H26.0342L18.8942 12H20.5462L27.6722 1.038ZM20.1402 2.34C20.7422 2.34 21.2182 2.83 21.2182 3.404C21.2182 3.978 20.7422 4.468 20.1402 4.468C19.5662 4.468 19.0762 4.006 19.0762 3.404C19.0762 2.802 19.5662 2.34 20.1402 2.34ZM26.4262 7.128C25.7402 7.128 25.1522 7.366 24.6622 7.856C24.1862 8.346 23.9482 8.92 23.9482 9.606C23.9482 10.292 24.1862 10.866 24.6762 11.356C25.1662 11.832 25.7402 12.07 26.4262 12.07C27.1122 12.07 27.6862 11.832 28.1622 11.356C28.6522 10.866 28.8902 10.292 28.8902 9.606C28.8902 8.92 28.6522 8.346 28.1622 7.856C27.6862 7.366 27.1122 7.128 26.4262 7.128ZM27.1822 10.362C26.7762 10.768 26.0902 10.768 25.6562 10.362C25.2502 9.928 25.2502 9.27 25.6562 8.864C26.0902 8.43 26.7762 8.43 27.1822 8.864C27.5882 9.27 27.5882 9.928 27.1822 10.362Z" fill="#67B044"/>
</svg>
